<svg width="208" height="148" viewBox="0 0 208 148" fill="none" xmlns="http://www.w3.org/2000/svg">
<g clip-path="url(#clip0_68_513)">
<path d="M90.697 130.439L91.011 123.452C94.2844 121.721 97.9355 120.806 101.647 120.788C96.5388 124.921 97.1772 132.887 93.7138 138.445C92.6202 140.17 91.1483 141.63 89.4072 142.715C87.6661 143.801 85.7003 144.485 83.6557 144.717L79.3809 147.307C78.7943 144.071 78.9236 140.748 79.7599 137.566C80.5962 134.384 82.1197 131.42 84.2253 128.877C85.4208 127.462 86.7916 126.202 88.3054 125.125C89.3292 127.797 90.697 130.439 90.697 130.439Z" fill="#F2F2F2"/>
<path d="M117.872 33.2342C117.984 34.8225 118.457 36.3653 119.255 37.7478C120.937 40.671 123.822 42.7875 126.928 44.0455C130.81 45.6171 135.136 45.6656 139.256 45.3151C143.081 44.9896 146.868 44.2351 150.708 44.0796C153.678 43.9856 156.651 44.0558 159.612 44.2898C165.358 44.6934 171.081 45.4422 176.766 46.3499C178.306 46.5928 179.842 46.8537 181.375 47.1327C181.52 47.1453 181.664 47.1717 181.804 47.2114C181.831 47.2227 181.876 47.2139 181.902 47.2297C181.948 47.2586 181.714 47.1566 181.856 47.2724C182.053 47.4771 182.229 47.7011 182.381 47.9408L184.481 50.6148C185.083 51.3816 185.642 52.3132 186.42 52.9176C186.969 53.3371 187.631 53.5864 188.322 53.6341C189.014 53.6818 189.705 53.5258 190.307 53.1857C190.936 52.7923 191.438 52.2283 191.752 51.5609C192.235 50.6844 192.811 49.8614 193.471 49.1059C195.969 46.2221 199.441 44.4484 202.345 42.022C203.751 40.8948 204.952 39.537 205.894 38.0076C206.697 36.6237 207.197 35.0876 207.36 33.4996C207.708 30.2748 206.708 26.9862 205.026 24.2428C203.196 21.2954 200.568 18.915 197.44 17.3718C193.926 15.6001 190.037 14.7371 186.139 14.307C182 13.8504 177.813 13.8518 173.654 13.8979C168.987 13.9493 164.328 14.1525 159.677 14.5073C155.02 14.8639 150.381 15.3709 145.761 16.0283C141.328 16.659 136.841 17.3164 132.501 18.4324C128.668 19.4183 124.845 20.9593 121.982 23.7515C119.437 26.2341 117.666 29.6315 117.872 33.2342Z" fill="#E6E6E6"/>
<path d="M138.126 20.2725C133.988 21.028 129.657 21.9531 126.184 24.1938C122.75 26.4098 120.662 29.8939 120.865 33.0698C121.162 37.7088 126.146 41.1778 130.685 42.0868C135.033 42.9569 139.562 42.3676 144.357 41.7433C145.418 41.6052 146.516 41.4623 147.601 41.3381C159.404 39.988 181.567 44.1466 182.505 44.3242L183.48 44.5089L188.638 51.0784C189.813 48.4912 191.855 46.1903 194.023 44.4758C195.015 43.6909 196.051 42.9622 197.053 42.2574C199.607 40.4595 202.021 38.7612 203.353 36.4281C206.253 31.3471 202.826 24.2622 197.935 21.0815C192.426 17.4981 185.165 16.936 178.14 16.8622C177.408 16.8545 176.676 16.8507 175.943 16.8507C163.259 16.8526 150.601 17.9979 138.126 20.2725V20.2725Z" fill="white"/>
<path d="M134.824 25.8877C134.824 25.7469 134.852 25.6074 134.907 25.4772C134.961 25.347 135.041 25.2286 135.141 25.1289C135.242 25.0292 135.361 24.9501 135.493 24.896C135.624 24.842 135.765 24.8141 135.907 24.814H185.728C186.015 24.814 186.291 24.927 186.494 25.1281C186.697 25.3293 186.812 25.6021 186.812 25.8866C186.812 26.1711 186.697 26.4439 186.494 26.6451C186.291 26.8463 186.015 26.9593 185.728 26.9593H135.907C135.62 26.959 135.345 26.846 135.142 26.6451C134.939 26.4442 134.825 26.1718 134.824 25.8877V25.8877Z" fill="#E6E6E6"/>
<path d="M134.824 32.4718C134.824 32.331 134.852 32.1915 134.907 32.0613C134.961 31.9311 135.041 31.8127 135.141 31.713C135.242 31.6133 135.361 31.5342 135.493 31.4802C135.624 31.4261 135.765 31.3982 135.907 31.3981H185.73C185.872 31.3982 186.013 31.4261 186.145 31.4802C186.276 31.5342 186.396 31.6133 186.496 31.713C186.597 31.8128 186.676 31.9311 186.731 32.0613C186.785 32.1915 186.813 32.331 186.813 32.4718C186.813 32.6127 186.784 32.7522 186.73 32.8822C186.675 33.0123 186.595 33.1305 186.494 33.23C186.394 33.3295 186.274 33.4084 186.143 33.4622C186.011 33.5159 185.87 33.5435 185.728 33.5434H135.907C135.62 33.5431 135.345 33.4301 135.142 33.2292C134.939 33.0283 134.825 32.7559 134.824 32.4718V32.4718Z" fill="#E6E6E6"/>
<path d="M178.839 39.0557C178.839 38.9148 178.867 38.7753 178.921 38.6451C178.975 38.5149 179.055 38.3966 179.156 38.2969C179.256 38.1972 179.376 38.1181 179.507 38.064C179.638 38.01 179.779 37.9821 179.922 37.9819H185.728C186.015 37.9819 186.291 38.0949 186.494 38.2961C186.697 38.4973 186.812 38.7701 186.812 39.0546C186.812 39.3391 186.697 39.6119 186.494 39.8131C186.291 40.0142 186.015 40.1272 185.728 40.1272H179.922C179.635 40.1269 179.359 40.014 179.156 39.8131C178.953 39.6122 178.839 39.3398 178.839 39.0557V39.0557Z" fill="#E6E6E6"/>
<path d="M69.8725 20.6575C69.3544 19.4729 68.5681 18.422 67.5744 17.586C66.5806 16.7499 65.406 16.151 64.1412 15.8355C61.333 15.1127 57.2211 16.2138 55.1099 17.7947C51.2483 20.6865 50.3059 30.621 52.959 33.7604C53.4867 33.7394 55.3077 33.7239 55.8418 33.7088L56.5973 31.8167V33.6902C60.7662 33.5934 65.1064 33.654 69.449 33.7167C69.8382 31.494 70.7654 22.7956 69.8725 20.6575Z" fill="#3F3B3B"/>
<path d="M69.1646 140.451H72.9672L74.776 125.938L69.1641 125.938L69.1646 140.451Z" fill="#9E616A"/>
<path d="M35.8787 138.111L39.558 139.06L45.008 125.468L39.5772 124.067L35.8787 138.111Z" fill="#9E616A"/>
<path d="M56.8329 51.3124L55.9714 53.529L56.1438 55.7457L73.0058 61.525L72.169 51.8239L70.2735 49.607L56.8329 51.3124Z" fill="#FFB6B6"/>
<path d="M64.0669 31.3643C67.393 31.3643 70.0893 28.6962 70.0893 25.4048C70.0893 22.1135 67.393 19.4453 64.0669 19.4453C60.7408 19.4453 58.0444 22.1135 58.0444 25.4048C58.0444 28.6962 60.7408 31.3643 64.0669 31.3643Z" fill="#E3BA94"/>
<path d="M68.205 17.6445C67.0478 16.9464 65.7224 16.5688 64.3672 16.5511C63.0121 16.5334 61.677 16.8764 60.5016 17.544C59.3263 18.2117 58.3537 19.1795 57.6858 20.3464C57.0178 21.5133 56.6789 22.8364 56.7045 24.1772C59.9873 25.0075 63.4857 25.3548 67.193 24.3772L68.0404 22.3248L68.5401 24.3787C69.6743 25.1682 70.769 25.1668 71.8241 24.3744C71.8689 23.0374 71.5582 21.7121 70.9231 20.5311C70.288 19.3501 69.3507 18.3547 68.205 17.6445V17.6445Z" fill="#3F3B3B"/>
<path d="M68.2218 138.595L74.2326 138.24V140.788L79.9473 144.694C80.2296 144.887 80.4422 145.164 80.554 145.485C80.6659 145.805 80.6712 146.153 80.5691 146.477C80.467 146.801 80.2629 147.085 79.9866 147.286C79.7103 147.487 79.3763 147.596 79.0332 147.596H71.8771L70.6436 145.075L70.162 147.596H67.4639L68.2218 138.595Z" fill="#3F3B3B"/>
<path d="M35.1055 135.994L41.0125 137.15L40.3629 139.616L44.8973 144.822C45.1213 145.079 45.2564 145.4 45.2828 145.739C45.3093 146.077 45.2257 146.415 45.0443 146.703C44.863 146.991 44.5933 147.215 44.2746 147.34C43.956 147.466 43.6051 147.487 43.2732 147.402L36.3484 145.616L35.7974 142.869L34.6888 145.188L32.0779 144.514L35.1055 135.994Z" fill="#3F3B3B"/>
<path d="M36.3452 128.984L47.4909 106.316L50.9898 78.7256C48.5774 74.2922 53.0576 65.2712 53.0576 65.2712V61.4836L70.4127 64.7235C73.9624 74.304 75.6837 84.4534 75.4892 94.6557L74.7899 131.331H75.0092C75.3733 131.331 75.7224 131.474 75.9798 131.729C76.2372 131.983 76.3818 132.329 76.3818 132.689C76.3818 133.049 76.2372 133.395 75.9798 133.65C75.7224 133.904 75.3733 134.047 75.0092 134.047H68.1463C67.7823 134.047 67.4331 133.904 67.1757 133.65C66.9183 133.395 66.7737 133.049 66.7737 132.689C66.7737 132.329 66.9183 131.983 67.1757 131.729C67.4331 131.474 67.7823 131.331 68.1463 131.331H68.3233L63.3965 84.6736L57.6679 107.698L43.8241 128.897C44.1772 128.924 44.5059 129.086 44.7412 129.348C44.9765 129.61 45.1 129.952 45.0858 130.302C45.0716 130.652 44.9207 130.983 44.665 131.226C44.4092 131.468 44.0685 131.603 43.7143 131.603H36.8513C36.5322 131.603 36.2228 131.493 35.9767 131.292C35.7306 131.091 35.5632 130.811 35.5032 130.501C35.4432 130.19 35.4945 129.869 35.6482 129.592C35.8019 129.316 36.0484 129.1 36.3452 128.984Z" fill="#586041"/>
<path d="M51.4884 67.5933H51.4884C51.5454 67.3717 51.6719 67.1736 51.8497 67.0274C52.0274 66.8813 52.2474 66.7946 52.4781 66.7798C52.7068 64.1917 54.2183 47.5936 54.2758 47.1067L54.2781 47.0861L54.7157 37.8344C54.7316 37.4984 54.8721 37.1799 55.1102 36.9399C55.3483 36.6998 55.6675 36.555 56.0067 36.5331L58.3183 36.3836C58.35 36.3825 58.3801 36.3693 58.4021 36.3467C58.4242 36.3241 58.4365 36.294 58.4365 36.2626C58.4365 36.01 58.4868 35.7598 58.5845 35.5264C58.6822 35.293 58.8254 35.081 59.0059 34.9024C59.1864 34.7237 59.4007 34.582 59.6365 34.4854C59.8724 34.3887 60.1252 34.3389 60.3805 34.3389H67.2245C67.6678 34.3391 68.0958 34.4994 68.4282 34.7897C68.7605 35.0799 68.9744 35.4803 69.0296 35.9155C69.0327 35.9455 69.047 35.9732 69.0698 35.9932C69.0926 36.0131 69.1222 36.0238 69.1526 36.0231L69.1534 36.0231C69.9311 36.0073 70.6887 36.2678 71.2889 36.7575C71.889 37.2471 72.2919 37.9334 72.4244 38.6919C73.3601 44.0789 75.2352 56.3055 74.3081 63.1028C73.9854 65.469 74.1321 69.0278 74.2541 71.0077C74.2662 71.199 74.2401 71.3908 74.1772 71.5721C74.1143 71.7534 74.0158 71.9207 73.8875 72.0643C74.1604 72.1421 74.3921 72.3218 74.5338 72.5655C74.6755 72.8091 74.716 73.0976 74.6469 73.3703H74.6469C74.5757 73.6497 74.3952 73.8897 74.1452 74.0375C73.8952 74.1853 73.5961 74.2287 73.3137 74.1583L52.2847 68.9125C52.0024 68.8421 51.7598 68.6635 51.6105 68.4161C51.4611 68.1687 51.4172 67.8727 51.4884 67.5933V67.5933Z" fill="#8B946F"/>
<path d="M115.205 147.919H0.626421C0.539732 147.919 0.456594 147.885 0.395296 147.824C0.333997 147.764 0.299561 147.681 0.299561 147.595C0.299561 147.51 0.333997 147.427 0.395296 147.367C0.456594 147.306 0.539732 147.272 0.626421 147.272H115.205C115.292 147.272 115.375 147.306 115.436 147.367C115.497 147.427 115.532 147.51 115.532 147.595C115.532 147.681 115.497 147.764 115.436 147.824C115.375 147.885 115.292 147.919 115.205 147.919V147.919Z" fill="#CACACA"/>
<path d="M52.4576 83.2016C52.7339 82.9268 52.9459 82.5954 53.0788 82.2308C53.2116 81.8662 53.262 81.4771 53.2265 81.0911C53.191 80.7051 53.0704 80.3315 52.8731 79.9966C52.6759 79.6617 52.4069 79.3737 52.085 79.1528L56.351 58.1852L51.64 59.682L48.2253 79.9629C47.8862 80.5226 47.7663 81.1859 47.8884 81.8272C48.0105 82.4685 48.3661 83.0432 48.8877 83.4424C49.4094 83.8416 50.061 84.0376 50.7189 83.9932C51.3769 83.9488 51.9955 83.6672 52.4576 83.2016V83.2016Z" fill="#E3BA94"/>
<path d="M58.7566 38.8397L55.8337 36.6564C55.8337 36.6564 53.2552 36.4757 52.7985 41.0771C52.3418 45.6785 51.4041 54.646 51.4041 54.646L46.9314 75.1453L53.1229 76.4901L57.9135 54.3677L60.7873 47.7981L58.7566 38.8397Z" fill="#8B946F"/>
<path d="M96.72 44.7752C96.3552 44.6342 95.9635 44.574 95.5726 44.599C95.1817 44.624 94.8011 44.7335 94.4576 44.9198C94.1141 45.106 93.8161 45.3646 93.5845 45.6772C93.3529 45.9898 93.1933 46.3488 93.1171 46.729L71.9861 51.226L75.253 54.9031L95.4081 49.9078C96.062 49.9921 96.7245 49.8362 97.27 49.4695C97.8155 49.1028 98.2061 48.5508 98.3679 47.9181C98.5296 47.2855 98.4511 46.6161 98.1474 46.0368C97.8437 45.4576 97.3359 45.0087 96.72 44.7752V44.7752Z" fill="#E3BA94"/>
<path d="M68.6651 56.1296C67.9898 55.484 67.482 54.6867 67.1848 53.8054L63.3264 42.325C63.0446 41.4864 63.0006 40.5873 63.1991 39.7257C63.3977 38.864 63.8312 38.0727 64.4526 37.4378C65.0739 36.803 65.8593 36.3489 66.7233 36.125C67.5873 35.9011 68.4968 35.9159 69.3529 36.1678C70.3195 36.4535 71.1733 37.028 71.7971 37.8125C72.421 38.597 72.7846 39.5532 72.838 40.5501L73.3105 49.5844L88.9032 47.3249L92.9561 51.0117L92.7372 51.0855C91.8762 51.3757 72.1682 57.9866 68.9057 56.2968C68.8178 56.2526 68.7368 56.1963 68.6651 56.1296V56.1296Z" fill="#8B946F"/>
<path d="M97.3371 37.4633C97.3098 37.4633 97.2826 37.4628 97.2552 37.4618C96.9347 37.4503 96.6218 37.3623 96.343 37.2055C96.0643 37.0486 95.828 36.8274 95.6542 36.5607C94.3524 34.6354 92.7549 32.923 90.9193 31.4854C89.8081 30.6065 88.6469 29.7893 87.524 28.9989C84.6271 26.9606 81.8989 25.0409 80.3845 22.3883C77.0827 16.6043 80.9711 8.54795 86.5261 4.93495C92.7567 0.882778 100.952 0.247161 108.88 0.163863C109.704 0.155241 110.529 0.150956 111.354 0.151001C125.638 0.156421 139.893 1.44622 153.942 4.00449C158.614 4.85737 163.504 5.90218 167.433 8.43774C171.34 10.9583 173.714 14.9276 173.482 18.5503C173.144 23.8388 167.479 27.7904 162.32 28.8235C157.403 29.8075 152.294 29.1425 146.887 28.4383C145.693 28.283 144.458 28.1223 143.238 27.9826C129.971 26.4652 105.049 31.1422 103.994 31.3421L102.948 31.5403L98.8895 36.7088C98.7069 36.9444 98.4718 37.135 98.2026 37.2659C97.9333 37.3968 97.6371 37.4644 97.3371 37.4633Z" fill="#8B946F"/>
<path d="M156.415 11.6641H100.341C100.018 11.6637 99.7081 11.5363 99.4797 11.3099C99.2513 11.0835 99.123 10.7767 99.123 10.4569C99.123 10.137 99.2513 9.83018 99.4797 9.60382C99.7081 9.37746 100.018 9.25005 100.341 9.24957H156.415C156.738 9.25005 157.048 9.37746 157.276 9.60382C157.505 9.83018 157.633 10.137 157.633 10.4569C157.633 10.7767 157.505 11.0835 157.276 11.3099C157.048 11.5363 156.738 11.6637 156.415 11.6641V11.6641Z" fill="white"/>
<path d="M156.415 19.0746H100.341C100.181 19.0749 100.022 19.044 99.8739 18.9836C99.7257 18.9231 99.5909 18.8344 99.4774 18.7223C99.3638 18.6103 99.2737 18.4773 99.2121 18.3308C99.1506 18.1843 99.1188 18.0272 99.1187 17.8686C99.1185 17.7099 99.1499 17.5528 99.2112 17.4062C99.2724 17.2596 99.3622 17.1263 99.4756 17.0141C99.5889 16.9018 99.7234 16.8128 99.8715 16.752C100.02 16.6913 100.178 16.66 100.339 16.66H156.415C156.738 16.6605 157.048 16.7879 157.276 17.0143C157.505 17.2406 157.633 17.5474 157.633 17.8673C157.633 18.1872 157.505 18.494 157.276 18.7204C157.048 18.9467 156.738 19.0741 156.415 19.0746V19.0746Z" fill="white"/>
<path d="M106.876 26.4849H100.341C100.018 26.4849 99.7072 26.3577 99.4784 26.1313C99.2496 25.9049 99.1211 25.5978 99.1211 25.2776C99.1211 24.9574 99.2496 24.6503 99.4784 24.4239C99.7072 24.1975 100.018 24.0703 100.341 24.0703H106.876C107.199 24.0703 107.51 24.1975 107.738 24.4239C107.967 24.6503 108.096 24.9574 108.096 25.2776C108.096 25.5978 107.967 25.9049 107.738 26.1313C107.51 26.3577 107.199 26.4849 106.876 26.4849Z" fill="white"/>
</g>
<defs>
<clipPath id="clip0_68_513">
<rect x="0.299561" y="0.151001" width="207.129" height="147.768" rx="10" fill="white"/>
</clipPath>
</defs>
</svg>
