<svg width="201" height="72" viewBox="0 0 201 72" fill="none" xmlns="http://www.w3.org/2000/svg">
<g clip-path="url(#clip0_126_9)">
<path d="M39.779 27.5544C39.7484 27.4626 39.8402 27.2178 40.085 26.7894C40.2992 26.3916 40.544 25.8714 40.8194 25.2594C41.1254 24.6474 41.4008 23.9436 41.6762 23.1786C41.9516 22.4136 42.1658 21.618 42.2576 20.7918C42.38 19.9656 42.38 19.1394 42.227 18.3132C42.1046 17.487 41.768 16.6914 41.2172 15.957C40.8806 15.5592 40.391 15.3144 39.7484 15.2838C39.1058 15.2226 38.3714 15.3144 37.5758 15.5898C36.7802 15.804 35.9234 16.2018 35.0666 16.6914C34.1792 17.2116 33.3836 17.8236 32.6492 18.4968C31.9454 19.17 31.3334 19.9044 30.8132 20.7306C30.293 21.5568 30.0176 22.383 29.9258 23.2704C29.8646 23.9436 29.8952 24.5862 30.0176 25.1676C30.14 25.7796 30.293 26.3304 30.4766 26.82C30.6908 27.3096 30.905 27.7686 31.1192 28.197C31.364 28.6254 31.5782 28.9926 31.7618 29.3292C32.0372 29.7882 32.435 30.3084 33.0164 30.8592C33.5672 31.41 34.1792 32.0526 34.8218 32.7564C35.495 33.4908 36.1376 34.2864 36.8108 35.1738C37.4534 36.0612 38.0348 37.0404 38.5244 38.1726C39.0446 39.3048 39.3812 40.5594 39.5648 41.9364C39.779 43.3134 39.7484 44.8434 39.5342 46.5264C39.167 48.9744 38.5856 50.994 37.79 52.6158C36.9944 54.2682 36.1376 55.584 35.189 56.5632C34.271 57.5424 33.3224 58.2768 32.3432 58.7052C31.3946 59.1642 30.599 59.4396 29.987 59.562C29.4974 59.6844 28.916 59.7762 28.2428 59.8374C27.5696 59.9292 26.8352 59.8986 26.1008 59.8068C25.3664 59.6844 24.632 59.4396 23.867 59.103C23.102 58.7664 22.4288 58.2156 21.8168 57.5118C21.1436 56.6856 20.5928 55.7982 20.195 54.819C19.8278 53.9928 19.583 53.0748 19.3994 52.0038C19.2158 50.9328 19.3076 49.8006 19.6748 48.6378C19.9196 48.3624 20.195 48.087 20.501 47.8728C20.807 47.628 21.113 47.4444 21.3884 47.2608C21.725 47.0772 22.0616 46.8936 22.4288 46.7406C22.8572 46.5876 23.2856 46.4958 23.714 46.3734C24.0812 46.3122 24.4484 46.2816 24.8768 46.251C25.2746 46.251 25.6724 46.3122 26.0396 46.4346C25.55 46.9854 25.1828 47.5056 24.9992 47.9952C24.8768 48.2706 24.7544 48.5154 24.6932 48.699C24.5708 49.3416 24.5402 50.076 24.5708 50.9634C24.632 51.8202 24.8156 52.677 25.1216 53.4726C25.4276 54.2682 25.8866 54.972 26.468 55.5534C27.08 56.1348 27.8756 56.4408 28.8548 56.4714C31.2722 56.5326 33.2918 54.6354 34.9748 50.841C35.5256 49.6476 35.8316 48.4542 35.8622 47.2302C35.8622 46.0062 35.7092 44.8434 35.4032 43.7112C35.0972 42.6096 34.6688 41.5386 34.1486 40.5594C33.659 39.6108 33.1388 38.7846 32.6186 38.0808C32.0678 37.377 31.4558 36.6426 30.6908 35.8164C29.9564 35.0208 29.222 34.1334 28.5182 33.1848C27.7838 32.2362 27.1412 31.1958 26.5598 30.0636C25.9784 28.962 25.5806 27.738 25.397 26.4222C25.1216 24.5862 25.3052 22.8726 25.9172 21.3426C26.5292 19.8126 27.3554 18.4662 28.3958 17.334C29.4362 16.1712 30.5684 15.2226 31.7924 14.5188C33.0164 13.7844 34.118 13.3254 35.0666 13.1418C40.391 12.0708 43.8488 12.9582 45.5012 15.804C46.205 16.875 46.5722 18.0378 46.6334 19.2618C46.6946 20.4858 46.6334 21.5874 46.4192 22.6278C46.205 23.6682 45.9296 24.5556 45.6236 25.2594C45.3176 25.9632 45.1034 26.361 45.0116 26.4222C44.7974 26.6058 44.4914 26.82 44.063 27.0648C43.6346 27.279 42.9614 27.4932 41.9822 27.7074C41.7374 27.7686 41.462 27.7992 41.2172 27.7992C40.9724 27.7992 40.7276 27.7992 40.4522 27.738C40.2074 27.7074 39.9626 27.6462 39.779 27.5544ZM63.8918 37.7442C64.0142 37.53 64.1978 37.4076 64.412 37.377C64.6262 37.3158 64.8098 37.3464 64.9322 37.4382C65.0546 37.53 65.1464 37.7136 65.1464 37.9278C65.177 38.1726 65.0852 38.4786 64.871 38.8764C64.2284 40.131 63.3716 41.4774 62.3006 42.9156C61.2296 44.3844 60.0974 45.7308 58.904 46.9854C57.7106 48.2706 56.5478 49.311 55.4462 50.1372C54.314 50.9634 53.3654 51.3612 52.631 51.3612C51.5294 51.3612 50.642 51.147 49.9076 50.7186C49.1732 50.2902 48.6224 49.77 48.194 49.158C47.7962 48.5154 47.4902 47.8422 47.3372 47.1078C47.1842 46.3428 47.123 45.6696 47.1842 45.0576C47.2148 44.5068 47.3372 43.5582 47.5514 42.2118C47.735 40.8348 47.9798 39.2436 48.3164 37.4688C48.653 35.6634 49.0202 33.7356 49.4486 31.6854C49.8464 29.6352 50.2748 27.6462 50.7644 25.7184C50.183 25.8102 49.6322 25.8408 49.0508 25.9326C48.5 25.9938 47.9798 26.0244 47.5514 26.0244C46.4804 26.0244 45.5012 25.902 44.5526 25.6572C43.604 25.4124 42.9002 25.1676 42.4412 24.9228C42.1658 24.8004 42.074 24.6168 42.1046 24.372C42.1352 24.1272 42.227 23.8824 42.38 23.6376C42.5636 23.3622 42.7778 23.1786 43.0226 22.995C43.2674 22.8114 43.4816 22.7196 43.6958 22.7196C44.3078 22.7808 44.981 22.842 45.7154 22.8726C46.4192 22.9338 47.2148 22.9338 48.0716 22.9032C48.7142 22.8726 49.2956 22.842 49.877 22.7502C50.4584 22.689 51.0398 22.6278 51.5906 22.5054C52.019 20.9448 52.4474 19.5678 52.8452 18.405C53.243 17.2116 53.6102 16.416 53.9468 15.957C54.0692 15.7734 54.2834 15.6204 54.62 15.5286C54.9872 15.4062 55.3238 15.3144 55.7216 15.2838C56.1194 15.2226 56.5172 15.2226 56.8844 15.2838C57.221 15.3144 57.4964 15.4368 57.6494 15.651C57.833 15.9264 57.8942 16.5996 57.8636 17.6706C57.833 18.7722 57.6494 20.1492 57.3128 21.8322C58.6898 21.8322 59.9138 21.8934 60.9848 22.0464C62.0558 22.1994 62.9738 22.3524 63.7388 22.536C64.5038 22.7196 65.1158 22.9032 65.5748 23.0868C66.0338 23.2704 66.3704 23.3928 66.6152 23.454C66.8294 23.5152 66.9518 23.6988 66.9824 23.9436C66.9824 24.219 66.9518 24.4944 66.8294 24.7698C66.707 25.0452 66.5234 25.29 66.248 25.4736C66.0032 25.6878 65.6972 25.749 65.3606 25.6878C65.0546 25.6572 64.6874 25.5654 64.259 25.4736C63.8612 25.3818 63.3716 25.29 62.7902 25.2288C62.2088 25.1676 61.505 25.1064 60.74 25.0452C59.9444 24.984 59.0264 24.9228 57.9554 24.9228C57.7718 24.9228 57.527 24.9534 57.2822 24.9534C57.0374 24.984 56.7926 24.984 56.5172 24.984C56.3948 25.5042 56.2724 26.0244 56.15 26.5446C56.0276 27.0648 55.8746 27.585 55.691 28.1358C55.2626 29.4516 54.773 30.8898 54.2222 32.4504C53.702 33.7968 53.1206 35.3574 52.4168 37.1016C51.7436 38.8458 50.948 40.7124 50.0912 42.6708C49.9076 44.0784 49.9382 45.18 50.183 45.9144C50.4278 46.6488 50.7338 47.1996 51.101 47.5056C51.5294 47.8728 52.0496 48.087 52.6616 48.1176C53.1818 48.1788 53.7632 47.9952 54.467 47.5974C55.1708 47.169 55.9052 46.6182 56.6702 45.945C57.4352 45.2412 58.2002 44.4762 58.9652 43.6806C59.7608 42.8544 60.4646 42.0282 61.1072 41.2326C61.7804 40.4676 62.3618 39.7332 62.8514 39.0906C63.341 38.448 63.7082 37.989 63.8918 37.7442ZM83.3228 39.9474C82.313 41.4162 81.2114 42.8238 79.9568 44.1702C78.7022 45.5472 77.3864 46.7712 75.9788 47.8422C74.5712 48.9132 73.133 49.77 71.6642 50.4432C70.226 51.0858 68.7878 51.4224 67.4108 51.4224C66.6764 51.4224 65.8808 51.2388 65.0546 50.9022C64.2284 50.5656 63.4634 50.0148 62.7596 49.311C62.0558 48.5766 61.505 47.628 61.1072 46.4958C60.6788 45.333 60.5564 43.9254 60.74 42.273C60.8624 40.9266 61.2908 39.519 61.9946 38.0196C62.6984 36.5202 63.5858 35.1432 64.6262 33.8886C65.636 32.634 66.8294 31.5936 68.1146 30.7674C69.4304 29.9412 70.7156 29.5434 72.0314 29.5434C73.286 29.5434 74.204 29.8494 74.7548 30.4614C75.3362 31.104 75.581 31.869 75.5198 32.787C75.3974 33.8274 75.122 34.7454 74.6324 35.6022C74.1734 36.459 73.592 37.2546 72.9494 37.9278C72.2762 38.6316 71.5724 39.2436 70.838 39.825C70.1036 40.3758 69.3998 40.896 68.7266 41.3244C68.0228 41.8446 67.319 42.3036 66.6764 42.732C66.0032 43.191 65.4218 43.5888 64.9322 43.956C64.9628 44.7822 65.1158 45.486 65.3606 46.0368C65.636 46.5876 65.9726 47.0466 66.3704 47.3832C66.7682 47.7504 67.1966 47.9952 67.7168 48.1482C68.237 48.3012 68.7572 48.3624 69.2774 48.3624C70.4096 48.3624 71.5724 47.9952 72.7964 47.2914C74.0204 46.5876 75.1832 45.7308 76.3766 44.721C77.5394 43.7112 78.641 42.6708 79.6202 41.5998C80.63 40.4982 81.4868 39.5496 82.1294 38.7846C82.3436 38.5092 82.5884 38.3562 82.8332 38.295C83.078 38.2644 83.2922 38.295 83.4452 38.4174C83.5982 38.5092 83.6594 38.7234 83.6594 38.9988C83.6594 39.2742 83.537 39.5802 83.3228 39.9474ZM70.6544 32.3586C70.2566 32.3586 69.7976 32.5422 69.2468 32.94C68.7266 33.3378 68.1758 33.8886 67.6556 34.6536C67.1048 35.388 66.6152 36.306 66.1562 37.377C65.6972 38.448 65.3606 39.672 65.1158 41.049C65.5136 40.743 65.942 40.437 66.401 40.131C66.86 39.825 67.3496 39.4884 67.8086 39.1212C69.2162 38.0196 70.1954 37.071 70.7768 36.2448C71.3276 35.4186 71.6336 34.7148 71.6948 34.1334C71.756 33.4908 71.6948 33.0624 71.5112 32.7564C71.297 32.481 71.0216 32.3586 70.6544 32.3586ZM80.9054 59.4702C79.5896 59.5008 78.5492 59.2866 77.6924 58.797C76.8662 58.2768 76.193 57.573 75.734 56.6244C75.2444 55.7064 74.9384 54.5742 74.816 53.2278C74.663 51.8814 74.663 50.4432 74.816 48.852C74.969 47.628 75.275 46.3734 75.7034 45.0576C76.0706 43.9254 76.6214 42.7014 77.3558 41.3244C78.0902 39.978 79.1 38.6622 80.3546 37.377C80.5994 37.4382 80.8136 37.53 80.9972 37.6218C81.1502 37.683 81.2726 37.7748 81.3644 37.8666C81.4868 38.0196 81.548 38.1114 81.5786 38.2338C81.6398 38.601 81.548 38.9988 81.2726 39.4578C81.0278 39.9168 80.7524 40.4064 80.5076 40.9572C79.7732 42.4566 79.2224 43.8948 78.8552 45.2412C78.5186 46.5876 78.2738 47.8422 78.1514 49.005C78.1208 49.9842 78.1208 50.8716 78.182 51.6978C78.2738 52.4934 78.3962 53.1972 78.5492 53.7786C78.7328 54.3294 78.9164 54.7884 79.1 55.0944C79.3142 55.4004 79.4978 55.584 79.6508 55.584C79.8038 55.584 79.9874 55.4616 80.171 55.2168C80.3546 55.0026 80.5382 54.7272 80.6912 54.3906C80.9054 54.054 81.1196 53.5644 81.3644 52.8606C81.6398 52.1874 81.9152 51.4224 82.2212 50.535C82.5272 49.6476 82.8026 48.6684 83.078 47.628C83.384 46.5876 83.6288 45.5472 83.843 44.5068C84.302 42.3954 84.8222 40.0086 85.3424 37.377C85.8626 34.7148 86.6276 31.9302 87.668 29.0232C88.0046 27.8298 88.4024 26.4834 88.892 25.0452C89.2898 23.7906 89.7794 22.3218 90.3914 20.6694C91.0034 18.9864 91.7072 17.181 92.5028 15.2532C92.5028 15.1002 92.6252 14.9166 92.9312 14.7942C93.2066 14.6412 93.5126 14.4882 93.8798 14.3046C94.2776 14.1516 94.706 13.968 95.2262 13.815C95.8688 13.5702 96.389 13.4478 96.7868 13.4172C97.154 13.3866 97.46 13.4478 97.6436 13.5702C97.8272 13.6926 97.9802 13.8762 98.0414 14.0904C98.1026 14.3046 98.1332 14.5494 98.1332 14.7942C98.1944 15.8958 98.225 16.9056 98.2556 17.8542C98.2862 18.8334 98.2862 19.6596 98.3168 20.394C98.378 21.2508 98.378 22.0158 98.378 22.7196C98.4086 23.6376 98.378 24.8616 98.225 26.3916C98.1026 27.9216 97.9496 29.5434 97.8272 31.1958C97.6742 32.8788 97.5212 34.5312 97.4294 36.1224C97.307 37.7442 97.2764 39.06 97.3376 40.1004C97.3376 40.6512 97.3682 41.1714 97.4294 41.661C97.46 42.1506 97.5212 42.6096 97.5824 43.0686C98.0108 41.8752 98.5004 40.6512 99.0206 39.3354C99.5408 38.0502 100.061 36.7956 100.612 35.6022C101.132 34.3782 101.622 33.246 102.081 32.2362C102.54 31.1958 102.907 30.339 103.182 29.6352C103.58 28.7172 104.1 27.5544 104.743 26.1162C105.416 24.7086 106.089 23.301 106.762 21.8628C107.436 20.4552 108.048 19.1394 108.629 17.9766C109.21 16.7832 109.639 15.957 109.884 15.498C110.098 15.1614 110.434 14.886 110.893 14.6106C111.383 14.3352 111.903 14.121 112.454 13.9068C112.974 13.7232 113.494 13.5702 113.984 13.509C114.443 13.4172 114.78 13.4172 114.933 13.4784C115.361 13.5702 115.667 13.6926 115.851 13.8762C116.034 14.0292 116.126 14.1516 116.157 14.2128C116.248 14.3352 116.279 14.5494 116.31 14.886C116.34 15.192 116.34 15.6816 116.279 16.3242C116.187 17.1198 116.004 18.3438 115.698 19.935C115.392 21.5568 115.024 23.3928 114.565 25.443C114.106 27.5238 113.647 29.6964 113.127 32.0526C112.607 34.3782 112.148 36.7038 111.658 38.9376C111.199 41.202 110.802 43.3134 110.465 45.3024C110.128 47.2608 109.884 48.9438 109.792 50.2902C109.731 51.7896 109.822 53.136 110.098 54.2988C110.19 54.7884 110.343 55.2474 110.526 55.7064C110.74 56.196 110.985 56.5938 111.322 56.9304C111.658 57.267 112.056 57.5424 112.515 57.6954C112.974 57.8484 113.525 57.9096 114.137 57.8484C113.311 58.3992 112.515 58.8276 111.72 59.0724C110.924 59.3478 110.159 59.4702 109.394 59.4702C108.568 59.5008 107.864 59.3784 107.221 59.103C106.609 58.8276 106.059 58.4298 105.63 57.9096C105.232 57.42 104.896 56.808 104.712 56.0736C104.498 55.3698 104.437 54.6048 104.498 53.748C104.559 52.9524 104.804 51.6672 105.141 49.8312C105.508 48.0258 105.936 45.9756 106.456 43.6806C106.977 41.3856 107.527 38.9988 108.139 36.5202C108.751 34.0416 109.333 31.6854 109.853 29.5128C110.404 27.3096 110.893 25.443 111.261 23.8518C111.658 22.2606 111.903 21.2202 112.026 20.7306C112.087 20.3328 112.148 19.9656 112.209 19.629C112.24 19.2618 112.301 18.9864 112.362 18.711C112.026 19.3842 111.628 20.1492 111.169 21.0672C110.679 22.0158 110.159 22.995 109.639 24.0354C109.119 25.1064 108.598 26.1774 108.048 27.3402C107.497 28.4724 106.977 29.574 106.487 30.6144C105.661 32.328 104.865 34.0722 104.07 35.8776C103.274 37.683 102.57 39.3966 101.928 40.9878C101.316 42.6096 100.795 44.0478 100.367 45.333C99.9692 46.6182 99.7244 47.628 99.6632 48.3012V49.005C99.6632 49.1886 99.6632 49.4334 99.6938 49.6782C99.6938 49.9536 99.755 50.1984 99.8162 50.4432L97.8272 51.9732C97.5518 52.065 97.2764 52.1568 97.0622 52.218C96.848 52.2792 96.6644 52.3098 96.4502 52.3098C95.6852 52.3098 95.1038 51.912 94.706 51.1164C94.3388 50.4126 93.9716 48.9744 93.635 46.8936C93.2984 44.7822 93.2066 42.1812 93.329 39.1212C93.3902 37.5912 93.5126 36.0612 93.6656 34.5312C93.8186 32.9706 93.9716 31.5018 94.094 30.0636C94.247 28.656 94.4 27.3402 94.5224 26.0856C94.6754 24.8616 94.706 23.7906 94.706 22.9032C94.7672 22.2606 94.7366 21.6486 94.6754 21.0978C94.6142 20.547 94.553 20.0574 94.4612 19.5984C94.1858 20.3634 93.8492 21.3732 93.482 22.689C93.1148 24.0048 92.7476 25.443 92.3498 27.0036C91.952 28.5948 91.5542 30.2472 91.1564 31.9914C90.728 33.7356 90.3302 35.4186 89.963 37.0404C89.5652 38.6622 89.2286 40.1616 88.892 41.508C88.5554 42.885 88.3106 43.9866 88.0964 44.7822C87.7598 46.1286 87.4538 47.628 87.1172 49.311C86.7806 50.9634 86.3828 52.5546 85.8932 54.054C85.373 55.5534 84.7304 56.8386 83.9654 57.879C83.1698 58.9194 82.1294 59.4396 80.9054 59.4702ZM142.197 40.4064C141.738 41.049 141.157 41.8752 140.422 42.8544C139.719 43.803 138.954 44.7822 138.189 45.7614C137.424 46.7406 136.659 47.628 135.924 48.4236C135.159 49.2498 134.547 49.8006 134.058 50.1372C133.721 50.3514 133.354 50.5044 132.925 50.6268C132.497 50.7492 132.069 50.841 131.61 50.8716C131.151 50.9022 130.753 50.8716 130.355 50.8104C129.957 50.7186 129.621 50.5962 129.315 50.382C129.009 50.1372 128.764 49.8312 128.58 49.4028C128.397 49.0356 128.244 48.546 128.091 47.9646C127.938 47.3832 127.907 46.6182 127.938 45.7308C127.142 47.0466 126.255 48.0564 125.306 48.7908C124.357 49.4946 123.439 50.0148 122.583 50.3514C121.603 50.688 120.624 50.9022 119.614 50.9634C119.155 50.9634 118.666 50.8104 118.146 50.5044C117.625 50.1984 117.166 49.7088 116.799 49.0356C116.432 48.3318 116.218 47.475 116.126 46.404C116.004 45.333 116.157 44.0478 116.524 42.579C116.983 40.5594 117.717 38.754 118.727 37.1016C119.706 35.4492 120.808 34.0416 122.001 32.8482C123.195 31.6854 124.357 30.8286 125.49 30.2166C126.652 29.6352 127.601 29.3598 128.366 29.421C129.253 29.6046 129.988 29.8494 130.539 30.2166C130.998 30.5532 131.304 31.0428 131.457 31.6854C131.61 32.328 131.334 33.1848 130.661 34.2252C131.12 34.1334 131.487 34.0722 131.793 34.0416C132.13 33.9804 132.344 33.9804 132.528 33.9804C132.711 33.9804 132.864 33.9804 132.925 34.0416C132.956 34.1028 132.956 34.2252 132.956 34.4394C132.956 34.6536 132.925 35.0514 132.834 35.6022C132.711 36.1836 132.558 36.918 132.375 37.8666C132.16 38.8458 131.916 40.0698 131.579 41.5998C131.518 41.8752 131.457 42.1506 131.426 42.3954C131.365 42.6402 131.304 42.885 131.273 43.1298C131.212 43.3746 131.151 43.6806 131.089 44.0172C131.028 44.3538 130.936 44.7516 130.845 45.2412C130.814 45.5472 130.783 45.8532 130.814 46.1898C130.845 46.557 130.906 46.8936 130.998 47.169C131.089 47.475 131.242 47.7198 131.457 47.9034C131.671 48.0564 131.977 48.1482 132.375 48.1482C132.711 48.1482 133.14 47.9646 133.66 47.5362C134.18 47.1384 134.731 46.5876 135.343 45.945C135.924 45.333 136.536 44.5986 137.179 43.8336C137.821 43.0686 138.433 42.3036 138.984 41.5998C139.566 40.8654 140.055 40.2228 140.514 39.672C140.943 39.0906 141.279 38.6928 141.463 38.4174C141.738 38.1114 141.983 37.9584 142.258 37.8972C142.534 37.8666 142.717 37.9278 142.84 38.1114C142.993 38.3256 143.023 38.6316 142.932 39.0294C142.84 39.4272 142.595 39.8862 142.197 40.4064ZM127.723 42.579C127.907 41.9058 128.091 41.1408 128.305 40.2534C128.55 39.366 128.764 38.5092 128.917 37.683C129.07 36.8568 129.192 36.1836 129.284 35.6328C129.376 35.082 129.345 34.8372 129.223 34.8678C129.039 34.8984 128.856 34.9596 128.672 35.0208C128.519 35.082 128.274 35.1432 128.029 35.1738C127.754 35.2044 127.509 35.235 127.234 35.2962C127.509 34.776 127.662 34.3476 127.693 34.011C127.754 33.6438 127.754 33.399 127.723 33.1848C127.693 32.9706 127.632 32.787 127.54 32.634C127.173 32.3586 126.53 32.5728 125.643 33.3684C124.725 34.1334 123.684 35.5716 122.491 37.6218C122.001 38.4786 121.603 39.3966 121.297 40.3758C121.022 41.355 120.808 42.273 120.685 43.1298C120.563 43.9866 120.563 44.721 120.624 45.3636C120.685 46.0062 120.808 46.4346 121.022 46.6182C121.359 46.9854 121.787 47.169 122.246 47.1384C122.705 47.1384 123.164 46.9854 123.654 46.7406C124.113 46.4958 124.602 46.1898 125.092 45.792C125.551 45.3942 125.979 44.9964 126.377 44.5374C126.744 44.109 127.05 43.7418 127.295 43.3746C127.57 43.0074 127.693 42.732 127.723 42.579ZM137.026 49.9842C136.781 50.3514 136.536 50.5962 136.261 50.7186C135.955 50.8104 135.71 50.841 135.526 50.7492C135.282 50.688 135.159 50.5044 135.098 50.229C135.037 49.9842 135.098 49.6476 135.282 49.2498C135.373 49.0356 135.618 48.6072 135.955 47.9034C136.291 47.2302 136.72 46.404 137.179 45.4248C137.668 44.4456 138.189 43.3746 138.739 42.2424C139.321 41.1102 139.841 40.0392 140.361 39.0294C140.851 37.989 141.34 37.071 141.769 36.2754C142.197 35.4798 142.503 34.8984 142.687 34.5312C142.35 34.1946 142.105 33.9498 141.952 33.7968C141.83 33.6438 141.738 33.3378 141.646 32.8482C141.585 32.4198 141.708 31.8384 141.952 31.1652C142.228 30.4614 142.564 29.7882 142.993 29.1456C143.421 28.5336 143.911 27.9522 144.431 27.4932C144.951 27.0342 145.471 26.82 145.961 26.82C146.879 26.82 147.522 27.126 147.919 27.7074C148.287 28.2888 148.531 28.9008 148.562 29.5434C148.654 29.9718 148.623 30.492 148.47 31.1652C148.348 31.8078 148.103 32.4198 147.736 32.94C147.828 33.0012 147.981 33.093 148.134 33.1542C148.287 33.246 148.562 33.2766 148.929 33.2766C149.449 33.2766 149.817 33.246 150.031 33.1848C150.245 33.1236 150.582 33.093 151.041 33.093C151.622 33.093 152.081 33.2154 152.448 33.5214C152.785 33.7968 153.091 34.1334 153.336 34.5618C153.55 34.9596 153.733 35.388 153.825 35.8776C153.948 36.3672 154.039 36.7956 154.07 37.1934C154.162 38.0196 153.948 38.8764 153.427 39.7638C152.907 40.6512 152.265 41.6304 151.5 42.6708C151.041 43.344 150.582 44.0784 150.123 44.9046C149.633 45.7308 149.449 46.4652 149.511 47.1384C149.602 47.5668 149.694 47.9034 149.878 48.1482C150.031 48.4236 150.49 48.546 151.255 48.546C151.806 48.546 152.418 48.3318 153.091 47.934C153.764 47.5362 154.468 46.9854 155.172 46.3428C155.875 45.7002 156.579 44.9964 157.283 44.2314C157.956 43.4664 158.599 42.7014 159.211 41.967C159.792 41.2326 160.312 40.5594 160.71 39.9474C161.139 39.366 161.414 38.9376 161.628 38.6622C161.781 38.4174 161.995 38.2338 162.271 38.1114C162.546 38.0196 162.76 38.0196 162.975 38.1114C163.158 38.2338 163.281 38.4174 163.311 38.7234C163.372 39.0294 163.25 39.4272 162.975 39.9168C162.76 40.2228 162.424 40.7736 161.934 41.4774C161.475 42.2118 160.894 43.0074 160.221 43.9254C159.547 44.7822 158.782 45.7002 157.956 46.6488C157.13 47.5974 156.273 48.4542 155.386 49.2192C154.468 49.9842 153.55 50.6268 152.662 51.1164C151.744 51.606 150.888 51.8508 150.061 51.8508C149.205 51.8508 148.501 51.6978 147.95 51.3612C147.369 51.0552 146.91 50.6268 146.573 50.1678C146.236 49.6782 145.992 49.158 145.839 48.5766C145.686 47.9952 145.624 47.475 145.655 46.9854C145.686 46.5876 145.808 46.1592 145.992 45.7002C146.175 45.2718 146.389 44.8128 146.634 44.3232C146.879 43.8642 147.154 43.3746 147.43 42.885C147.705 42.426 147.95 41.967 148.195 41.4774C148.746 40.5288 149.205 39.7332 149.541 39.0294C149.878 38.3562 150.061 37.8054 150.061 37.3464C150.061 37.0404 150 36.765 149.878 36.5508C149.725 36.306 149.511 36.2142 149.235 36.2142C149.021 36.2142 148.899 36.2142 148.807 36.2142C148.715 36.2448 148.623 36.2448 148.562 36.2448C148.47 36.2448 148.348 36.2754 148.225 36.2754C148.072 36.306 147.828 36.306 147.552 36.306C147.124 36.306 146.757 36.2448 146.451 36.0918C146.145 35.9694 145.869 35.8776 145.624 35.8164C145.471 36.0306 145.196 36.5202 144.737 37.2852C144.278 38.0502 143.727 38.9376 143.115 39.9474C142.503 40.9878 141.861 42.0588 141.187 43.1604C140.514 44.2926 139.872 45.333 139.29 46.3122C138.709 47.2608 138.189 48.087 137.791 48.7908C137.362 49.464 137.118 49.8618 137.026 49.9842Z" fill="black"/>
<path d="M177.693 37.7442C177.816 37.53 177.999 37.4076 178.213 37.377C178.428 37.3158 178.611 37.3464 178.734 37.4382C178.856 37.53 178.948 37.7136 178.948 37.9278C178.978 38.1726 178.887 38.4786 178.672 38.8764C178.03 40.131 177.142 41.4774 176.071 42.9156C175 44.3844 173.899 45.7308 172.705 46.9854C171.512 48.2706 170.349 49.311 169.248 50.1372C168.115 50.9634 167.167 51.3612 166.432 51.3612C165.331 51.3612 164.443 51.147 163.709 50.7186C162.975 50.2902 162.424 49.77 161.995 49.158C161.598 48.5154 161.292 47.8422 161.139 47.1078C160.986 46.3428 160.924 45.6696 160.986 45.0576C161.016 44.5068 161.139 43.5582 161.322 42.2118C161.536 40.8348 161.781 39.2436 162.118 37.4688C162.454 35.6634 162.822 33.7356 163.219 31.6854C163.648 29.6352 164.076 27.6462 164.535 25.7184C163.984 25.8102 163.434 25.8408 162.852 25.9326C162.301 25.9938 161.781 26.0244 161.322 26.0244C160.282 26.0244 159.272 25.902 158.354 25.6572C157.405 25.4124 156.702 25.1676 156.243 24.9228C155.967 24.8004 155.875 24.6168 155.906 24.372C155.937 24.1272 156.028 23.8824 156.181 23.6376C156.365 23.3622 156.549 23.1786 156.824 22.995C157.069 22.8114 157.283 22.7196 157.467 22.7196C158.109 22.7808 158.782 22.842 159.517 22.8726C160.221 22.9338 161.016 22.9338 161.873 22.9032C162.485 22.8726 163.097 22.842 163.678 22.7502C164.26 22.689 164.841 22.6278 165.392 22.5054C165.82 20.9448 166.249 19.5678 166.647 18.405C167.044 17.2116 167.412 16.416 167.748 15.957C167.84 15.7734 168.085 15.6204 168.421 15.5286C168.789 15.4062 169.125 15.3144 169.523 15.2838C169.921 15.2226 170.319 15.2226 170.686 15.2838C171.022 15.3144 171.298 15.4368 171.451 15.651C171.634 15.9264 171.696 16.5996 171.665 17.6706C171.634 18.7722 171.451 20.1492 171.114 21.8322C172.491 21.8322 173.715 21.8934 174.786 22.0464C175.857 22.1994 176.775 22.3524 177.54 22.536C178.305 22.7196 178.917 22.9032 179.376 23.0868C179.835 23.2704 180.172 23.3928 180.417 23.454C180.631 23.5152 180.753 23.6988 180.784 23.9436C180.784 24.219 180.753 24.4944 180.631 24.7698C180.508 25.0452 180.325 25.29 180.049 25.4736C179.805 25.6878 179.499 25.749 179.162 25.6878C178.856 25.6572 178.458 25.5654 178.06 25.4736C177.632 25.3818 177.142 25.29 176.561 25.2288C176.01 25.1676 175.306 25.1064 174.511 25.0452C173.746 24.984 172.828 24.9228 171.757 24.9228C171.573 24.9228 171.328 24.9534 171.084 24.9534C170.839 24.984 170.594 24.984 170.319 24.984C170.196 25.5042 170.074 26.0244 169.951 26.5446C169.829 27.0648 169.676 27.585 169.492 28.1358C169.064 29.4516 168.574 30.8898 167.993 32.4504C167.503 33.7968 166.922 35.3574 166.218 37.1016C165.545 38.8458 164.749 40.7124 163.893 42.6708C163.709 44.0784 163.74 45.18 163.984 45.9144C164.229 46.6488 164.535 47.1996 164.902 47.5056C165.331 47.8728 165.851 48.087 166.463 48.1176C166.983 48.1788 167.565 47.9952 168.268 47.5974C168.972 47.169 169.707 46.6182 170.472 45.945C171.237 45.2412 172.002 44.4762 172.767 43.6806C173.532 42.8544 174.266 42.0282 174.909 41.2326C175.582 40.4676 176.163 39.7332 176.653 39.0906C177.142 38.448 177.479 37.989 177.693 37.7442Z" fill="black"/>
<path d="M39.7178 27.3402C39.7178 27.2484 39.8096 26.973 40.0238 26.5752C40.2686 26.1468 40.5134 25.6572 40.7888 25.0452C41.0642 24.4332 41.3702 23.7294 41.6456 22.9644C41.921 22.1994 42.1046 21.3732 42.227 20.5776C42.3494 19.7514 42.3494 18.9252 42.1964 18.099C42.074 17.2728 41.7374 16.4772 41.156 15.7122C40.8194 15.3144 40.3604 15.1002 39.7178 15.039C39.0752 15.0084 38.3408 15.1002 37.5452 15.345C36.719 15.5898 35.8928 15.9876 35.0054 16.4772C34.1486 16.9974 33.353 17.5788 32.6186 18.252C31.8842 18.9252 31.2722 19.6902 30.752 20.5164C30.2624 21.3426 29.9564 22.1688 29.8952 23.0256C29.834 23.7294 29.8646 24.372 29.987 24.9534C30.0788 25.5654 30.2318 26.0856 30.446 26.6058C30.6296 27.0954 30.8438 27.5544 31.0886 27.9828C31.3028 28.4112 31.5476 28.7784 31.7312 29.115C31.976 29.574 32.4044 30.0942 32.9552 30.645C33.5366 31.1958 34.118 31.8384 34.7912 32.5422C35.4644 33.246 36.107 34.0416 36.7802 34.9596C37.4228 35.8164 38.0042 36.8262 38.4938 37.9584C38.9834 39.0906 39.3506 40.3452 39.5342 41.7222C39.7178 43.0992 39.7178 44.6292 39.473 46.3122C39.1364 48.7602 38.555 50.7798 37.7594 52.4016C36.9638 54.054 36.107 55.3392 35.1584 56.349C34.2098 57.3282 33.2918 58.032 32.3126 58.491C31.364 58.95 30.5684 59.2254 29.9564 59.3478C29.4668 59.4396 28.8548 59.5314 28.1816 59.6232C27.5084 59.715 26.8046 59.6844 26.0702 59.5926C25.3358 59.4702 24.5708 59.2254 23.8364 58.8888C23.0714 58.5522 22.3982 58.0014 21.7862 57.267C21.113 56.4714 20.5622 55.5534 20.1644 54.6048C19.7972 53.7786 19.5218 52.83 19.3382 51.759C19.1546 50.688 19.277 49.5864 19.6136 48.4236C19.889 48.1482 20.1644 47.8728 20.4704 47.6586C20.7458 47.4138 21.0518 47.2302 21.3578 47.0466C21.6944 46.863 22.031 46.6794 22.3982 46.4958C22.8266 46.3734 23.255 46.251 23.6834 46.1592C24.0506 46.098 24.4178 46.0368 24.8462 46.0368C25.244 46.0062 25.6418 46.0674 26.009 46.2204C25.4888 46.7712 25.1522 47.2914 24.9686 47.781C24.8156 48.0564 24.7238 48.3012 24.6626 48.4848C24.5402 49.1274 24.479 49.8618 24.5402 50.7186C24.6014 51.606 24.7544 52.4322 25.091 53.2584C25.397 54.054 25.856 54.7578 26.4374 55.3392C27.0494 55.89 27.8144 56.196 28.7936 56.2266C31.211 56.3184 33.2612 54.4212 34.9442 50.5962C35.495 49.4334 35.801 48.2094 35.801 47.016C35.8316 45.792 35.6786 44.5986 35.3726 43.497C35.036 42.3648 34.6382 41.3244 34.118 40.3452C33.6284 39.366 33.0776 38.5398 32.5574 37.8666C32.0372 37.1628 31.3946 36.4284 30.6602 35.6022C29.9258 34.8066 29.1914 33.9192 28.457 32.9706C27.7532 32.022 27.08 30.9816 26.5292 29.8494C25.9478 28.7478 25.55 27.5238 25.3358 26.208C25.091 24.3414 25.2746 22.6584 25.8866 21.1284C26.468 19.5984 27.2942 18.252 28.3346 17.1198C29.375 15.957 30.5072 15.0084 31.7618 14.3046C32.9858 13.5702 34.0874 13.1112 35.036 12.897C40.3604 11.8566 43.8182 12.744 45.4706 15.5592C46.1438 16.6608 46.5416 17.8236 46.6028 19.017C46.664 20.241 46.6028 21.3732 46.3886 22.4136C46.1744 23.454 45.899 24.3414 45.593 25.0452C45.287 25.749 45.0728 26.1468 44.981 26.208C44.7668 26.3916 44.4608 26.6058 44.0324 26.8506C43.604 27.0648 42.9002 27.279 41.9516 27.4932C41.7068 27.5544 41.4314 27.585 41.156 27.585C40.9418 27.585 40.697 27.5544 40.4216 27.5238C40.1462 27.4932 39.932 27.432 39.7178 27.3402ZM63.8612 37.53C63.9836 37.3158 64.1672 37.1934 64.3814 37.1322C64.5956 37.1016 64.7486 37.1322 64.871 37.224C65.024 37.3158 65.0852 37.4688 65.1158 37.7136C65.1158 37.9278 65.024 38.2644 64.8404 38.6622C64.1672 39.9168 63.3104 41.2632 62.2394 42.7014C61.1684 44.1396 60.0362 45.5166 58.8428 46.7712C57.68 48.0564 56.5172 49.0968 55.385 49.923C54.2834 50.7492 53.3348 51.147 52.5698 51.147C51.4988 51.147 50.5808 50.9328 49.877 50.5044C49.1426 50.076 48.5612 49.5558 48.1634 48.9132C47.735 48.3012 47.4596 47.628 47.3066 46.8936C47.123 46.1286 47.0924 45.4554 47.1536 44.8434C47.1842 44.2926 47.3066 43.344 47.4902 41.9976C47.7044 40.6206 47.9492 39.0294 48.2858 37.224C48.6224 35.4492 48.9896 33.5214 49.3874 31.4712C49.8158 29.3904 50.2442 27.4014 50.7032 25.5042C50.1524 25.5654 49.6016 25.6266 49.0202 25.6878C48.4694 25.7796 47.9492 25.8102 47.4902 25.8102C46.4498 25.8102 45.44 25.6878 44.4914 25.443C43.5734 25.1982 42.8696 24.9534 42.4106 24.7086C42.1352 24.5862 42.0128 24.4026 42.0434 24.1578C42.1046 23.8824 42.1964 23.6682 42.3494 23.4234C42.533 23.148 42.7166 22.9338 42.9614 22.7808C43.2062 22.5972 43.451 22.4748 43.6346 22.4748C44.2772 22.5666 44.9504 22.6278 45.6542 22.6584C46.3886 22.7196 47.1842 22.7196 48.041 22.689C48.653 22.6584 49.265 22.5972 49.8464 22.536C50.4278 22.4748 50.9786 22.383 51.56 22.2912C51.9884 20.7 52.3862 19.323 52.8146 18.1602C53.2124 16.9974 53.5796 16.1712 53.9162 15.7122C54.008 15.5592 54.2528 15.4062 54.5894 15.3144C54.926 15.192 55.2932 15.1002 55.691 15.039C56.0888 15.0084 56.456 15.0084 56.8232 15.039C57.1904 15.1002 57.4658 15.2226 57.6188 15.4368C57.7718 15.6816 57.8636 16.3548 57.833 17.4564C57.7718 18.5274 57.6188 19.935 57.2822 21.618C58.6592 21.618 59.8832 21.6792 60.9542 21.8322C62.0252 21.9852 62.9432 22.1382 63.7082 22.3218C64.4426 22.5054 65.0852 22.689 65.5136 22.8726C66.0032 23.0562 66.3398 23.1786 66.554 23.2398C66.7988 23.301 66.9212 23.454 66.9212 23.7294C66.9518 24.0048 66.8906 24.2496 66.7988 24.525C66.6764 24.831 66.4928 25.0758 66.2174 25.2594C65.942 25.443 65.6666 25.5348 65.33 25.443C64.9934 25.4124 64.6262 25.3512 64.2284 25.2594C63.8 25.1676 63.3104 25.0758 62.729 25.0146C62.1476 24.9534 61.4744 24.8922 60.6788 24.831C59.8832 24.7392 58.9652 24.7086 57.9248 24.7086C57.7412 24.7086 57.4964 24.7392 57.2516 24.7392C57.0068 24.7698 56.762 24.7698 56.4866 24.7698C56.3642 25.29 56.2418 25.8102 56.1194 26.3304C55.997 26.82 55.844 27.3708 55.6604 27.9216C55.232 29.2374 54.7118 30.6756 54.161 32.2362C53.6714 33.5826 53.09 35.1126 52.3862 36.8568C51.6824 38.601 50.9174 40.4676 50.0606 42.4566C49.877 43.8642 49.877 44.9352 50.1218 45.7002C50.3666 46.4346 50.7032 46.9854 51.0704 47.2914C51.4682 47.6586 52.019 47.8422 52.631 47.9034C53.1206 47.9646 53.7326 47.781 54.4364 47.3526C55.1402 46.9548 55.8746 46.404 56.6396 45.7002C57.374 45.027 58.1696 44.262 58.9346 43.4358C59.6996 42.6096 60.434 41.814 61.0766 41.0184C61.7498 40.2228 62.3312 39.519 62.8208 38.8764C63.3104 38.2338 63.647 37.7748 63.8612 37.53ZM83.2616 39.7332C82.2824 41.1714 81.1502 42.579 79.9262 43.956C78.6716 45.333 77.3252 46.557 75.9482 47.628C74.5406 48.699 73.1024 49.5558 71.6336 50.1984C70.1648 50.8716 68.7572 51.2082 67.3802 51.2082C66.6458 51.2082 65.8502 51.0246 65.024 50.688C64.1672 50.3208 63.4022 49.8006 62.729 49.0662C62.0252 48.3624 61.4744 47.4138 61.0766 46.251C60.6482 45.1188 60.5258 43.7112 60.7094 42.0588C60.8318 40.7124 61.2296 39.2742 61.964 37.7748C62.6678 36.2754 63.5246 34.8984 64.565 33.6438C65.6054 32.4198 66.7682 31.3794 68.084 30.5532C69.3692 29.727 70.685 29.2986 72.0008 29.2986C73.2554 29.2986 74.1734 29.6352 74.7242 30.2472C75.275 30.8592 75.5198 31.6548 75.4586 32.5728C75.3668 33.5826 75.0914 34.5312 74.6018 35.388C74.1122 36.2448 73.5614 37.0098 72.8882 37.7136C72.2456 38.4174 71.5418 39.0294 70.8074 39.5802C70.0424 40.1616 69.3692 40.6512 68.696 41.1102C67.9616 41.6304 67.2884 42.0894 66.6152 42.5178C65.9726 42.9768 65.3912 43.3746 64.9016 43.7418C64.9322 44.568 65.0852 45.2718 65.33 45.8226C65.6054 46.3734 65.942 46.8324 66.3398 47.169C66.707 47.5056 67.166 47.7504 67.6862 47.9034C68.2064 48.0564 68.7266 48.1482 69.2468 48.1482C70.3484 48.1482 71.5418 47.781 72.7352 47.0772C73.9592 46.3734 75.1526 45.5166 76.3154 44.5068C77.5088 43.497 78.5798 42.4566 79.5896 41.3856C80.5994 40.284 81.4256 39.3354 82.0988 38.5398C82.313 38.295 82.5578 38.142 82.8026 38.0808C83.0474 38.0196 83.231 38.0808 83.384 38.1726C83.537 38.295 83.6288 38.5092 83.6288 38.7846C83.6288 39.06 83.5064 39.366 83.2616 39.7332ZM70.6238 32.1138C70.226 32.1138 69.767 32.328 69.2162 32.7258C68.6654 33.1236 68.1452 33.6744 67.625 34.4088C67.0742 35.1738 66.5846 36.0612 66.1256 37.1322C65.6666 38.2032 65.33 39.4272 65.0852 40.8348C65.483 40.5288 65.9114 40.2228 66.3704 39.9168C66.8294 39.6108 67.2884 39.2742 67.7474 38.907C69.1856 37.8054 70.1648 36.8568 70.7156 36.0306C71.2664 35.2044 71.603 34.5006 71.6642 33.9192C71.7254 33.2766 71.6642 32.8176 71.45 32.5422C71.2664 32.2668 70.991 32.1138 70.6238 32.1138ZM80.8442 59.256C79.559 59.2866 78.488 59.0418 77.6618 58.5522C76.805 58.0626 76.1624 57.3588 75.6728 56.4102C75.2138 55.4616 74.9078 54.3294 74.7854 53.0136C74.6324 51.6672 74.6324 50.1984 74.7854 48.6378C74.9384 47.4138 75.2444 46.1592 75.6728 44.8434C76.04 43.7112 76.5602 42.4566 77.3252 41.1102C78.0596 39.7638 79.0694 38.448 80.2934 37.1628C80.5688 37.224 80.783 37.3158 80.936 37.377C81.1196 37.4688 81.242 37.5606 81.3338 37.6524C81.4562 37.8054 81.5174 37.8972 81.548 38.0196C81.6092 38.3562 81.5174 38.7846 81.242 39.2436C80.9666 39.7026 80.7218 40.1922 80.4464 40.7124C79.7426 42.2424 79.1918 43.6806 78.8246 45.027C78.4574 46.3734 78.2126 47.628 78.1208 48.7908C78.0596 49.77 78.0902 50.6574 78.1514 51.4836C78.2432 52.2792 78.3656 52.983 78.5186 53.5644C78.7022 54.1152 78.8552 54.5742 79.0694 54.8802C79.253 55.1862 79.4366 55.3392 79.6202 55.3392C79.7732 55.3392 79.9568 55.2474 80.1404 55.0026C80.324 54.7578 80.477 54.4824 80.6606 54.1764C80.8442 53.8398 81.089 53.3502 81.3338 52.6464C81.6092 51.9732 81.8846 51.2082 82.1906 50.3208C82.466 49.4334 82.772 48.4542 83.0474 47.4138C83.3228 46.3734 83.5982 45.333 83.8124 44.2926C84.2714 42.1812 84.761 39.7944 85.2812 37.1322C85.832 34.5006 86.597 31.716 87.6374 28.809C87.9434 27.585 88.3412 26.2692 88.8614 24.831C89.2592 23.5458 89.7488 22.1076 90.3608 20.4552C90.9728 18.7722 91.6766 16.9668 92.4722 15.039C92.4722 14.8554 92.5946 14.7024 92.87 14.5494C93.176 14.3964 93.482 14.2434 93.8492 14.0904C94.247 13.9374 94.6754 13.7538 95.165 13.6008C95.8382 13.356 96.3584 13.2336 96.7256 13.203C97.1234 13.1724 97.3988 13.2336 97.613 13.356C97.7966 13.4784 97.919 13.662 98.0108 13.8762C98.072 14.0904 98.1026 14.3352 98.1026 14.58C98.1638 15.6816 98.1944 16.6914 98.225 17.64C98.225 18.5886 98.2556 19.4454 98.2862 20.1798C98.3168 21.0366 98.3474 21.8016 98.3474 22.4748C98.378 23.4234 98.3168 24.6474 98.1944 26.1774C98.072 27.7074 97.919 29.2986 97.766 30.9816C97.613 32.6646 97.4906 34.317 97.3682 35.9082C97.2764 37.4994 97.2458 38.8458 97.307 39.8862C97.307 40.437 97.3376 40.9572 97.3682 41.4468C97.4294 41.9058 97.4906 42.3954 97.5518 42.8544C97.6436 42.5484 97.766 42.2424 97.8884 41.967L97.2458 51.912C97.1846 51.9426 97.0928 51.9732 97.0316 52.0038C96.8174 52.065 96.6032 52.0956 96.4196 52.0956C95.6546 52.0956 95.0732 51.6978 94.6754 50.9022C94.3082 50.1984 93.941 48.7602 93.6044 46.6488C93.2678 44.5374 93.176 41.967 93.2984 38.907C93.3596 37.377 93.482 35.847 93.6044 34.317C93.7574 32.7564 93.9104 31.257 94.0634 29.8494C94.2164 28.4418 94.3388 27.0954 94.4918 25.8714C94.6142 24.6474 94.6754 23.5764 94.6754 22.689C94.706 22.0464 94.706 21.4344 94.6448 20.8836C94.5836 20.3328 94.4918 19.8432 94.4306 19.3842C94.1552 20.1492 93.8186 21.159 93.4514 22.4748C93.0842 23.76 92.717 25.1982 92.3192 26.7894C91.9214 28.3806 91.5236 30.033 91.0952 31.7772C90.6974 33.5214 90.2996 35.2044 89.9018 36.8262C89.5346 38.448 89.198 39.9168 88.8614 41.2938C88.5248 42.6708 88.2494 43.7724 88.0658 44.568C87.7292 45.9144 87.3926 47.3832 87.0866 49.0662C86.75 50.7492 86.3216 52.3404 85.832 53.8398C85.3424 55.3392 84.6998 56.6244 83.9042 57.6342C83.1086 58.6746 82.0988 59.2254 80.8442 59.256Z" fill="#656E46"/>
</g>
<defs>
<clipPath id="clip0_126_9">
<rect width="201" height="72" fill="white"/>
</clipPath>
</defs>
</svg>
